<mxfile host="Electron" modified="2023-10-11T10:18:19.367Z" agent="Mozilla/5.0 (Windows NT 10.0; Win64; x64) AppleWebKit/537.36 (KHTML, like Gecko) draw.io/22.0.2 Chrome/114.0.5735.289 Electron/25.8.4 Safari/537.36" etag="rbz2guqFrAWe-YQOcIvS" version="22.0.2" type="device">
  <diagram name="Page-1" id="4Ex4jXdC-lSHc9FFFn1K">
    <mxGraphModel dx="1750" dy="1118" grid="1" gridSize="10" guides="1" tooltips="1" connect="1" arrows="1" fold="1" page="1" pageScale="1" pageWidth="1600" pageHeight="900" math="0" shadow="0">
      <root>
        <mxCell id="0" />
        <mxCell id="1" parent="0" />
        <mxCell id="E_cQTGha5tROndE4W1PV-1" value="" style="rounded=0;whiteSpace=wrap;html=1;fontSize=16;fillColor=#60a917;fontColor=#ffffff;strokeColor=#2D7600;" parent="1" vertex="1">
          <mxGeometry width="1600" height="60" as="geometry" />
        </mxCell>
        <mxCell id="E_cQTGha5tROndE4W1PV-2" value="" style="rounded=0;whiteSpace=wrap;html=1;fontSize=16;" parent="1" vertex="1">
          <mxGeometry y="60" width="1600" height="1420" as="geometry" />
        </mxCell>
        <mxCell id="qSjhLi5UNrE3N7G1Dx0A-1" value="" style="rounded=1;whiteSpace=wrap;html=1;fontSize=16;fillColor=#d80073;fontColor=#ffffff;strokeColor=#A50040;" parent="1" vertex="1">
          <mxGeometry x="115" y="130" width="515" height="60" as="geometry" />
        </mxCell>
        <mxCell id="qSjhLi5UNrE3N7G1Dx0A-2" value="" style="rounded=1;whiteSpace=wrap;html=1;fontSize=16;" parent="1" vertex="1">
          <mxGeometry x="110" y="230" width="520" height="480" as="geometry" />
        </mxCell>
        <mxCell id="qSjhLi5UNrE3N7G1Dx0A-3" value="" style="whiteSpace=wrap;html=1;aspect=fixed;fontSize=16;fillColor=#6a00ff;fontColor=#ffffff;strokeColor=#3700CC;" parent="1" vertex="1">
          <mxGeometry x="830" y="130" width="310" height="310" as="geometry" />
        </mxCell>
        <mxCell id="qSjhLi5UNrE3N7G1Dx0A-9" value="" style="whiteSpace=wrap;html=1;aspect=fixed;fontSize=16;fillColor=#1ba1e2;fontColor=#ffffff;strokeColor=#006EAF;" parent="1" vertex="1">
          <mxGeometry x="1170" y="130" width="310" height="310" as="geometry" />
        </mxCell>
        <mxCell id="qSjhLi5UNrE3N7G1Dx0A-10" value="" style="rounded=1;whiteSpace=wrap;html=1;fontSize=16;fillColor=#d80073;fontColor=#ffffff;strokeColor=#A50040;" parent="1" vertex="1">
          <mxGeometry x="110" y="920" width="555" height="60" as="geometry" />
        </mxCell>
        <mxCell id="qSjhLi5UNrE3N7G1Dx0A-11" value="" style="rounded=1;whiteSpace=wrap;html=1;fontSize=16;" parent="1" vertex="1">
          <mxGeometry x="110" y="1030" width="560" height="220" as="geometry" />
        </mxCell>
        <mxCell id="qSjhLi5UNrE3N7G1Dx0A-12" value="" style="whiteSpace=wrap;html=1;aspect=fixed;fontSize=16;fillColor=#6a00ff;fontColor=#ffffff;strokeColor=#3700CC;" parent="1" vertex="1">
          <mxGeometry x="810" y="930" width="310" height="310" as="geometry" />
        </mxCell>
        <mxCell id="qSjhLi5UNrE3N7G1Dx0A-13" value="" style="whiteSpace=wrap;html=1;aspect=fixed;fontSize=16;fillColor=#1ba1e2;fontColor=#ffffff;strokeColor=#006EAF;" parent="1" vertex="1">
          <mxGeometry x="1200" y="930" width="310" height="310" as="geometry" />
        </mxCell>
      </root>
    </mxGraphModel>
  </diagram>
</mxfile>
